<svg width="15000" height="15000" viewBox="0 0 15000 15000" fill="none" xmlns="http://www.w3.org/2000/svg">
<rect width="15000" height="15000" fill="black"/>
<path fill-rule="evenodd" clip-rule="evenodd" d="M1503 7400C3950 7150 4055 7050 5100 4500L4562.43 6802.75C4541.86 6800.93 4521.04 6800 4500 6800C4147.35 6800 3855.61 7060.77 3807.09 7400H1503ZM3807.09 7600L1500 7600C4000 7800 4100 7900 3696.5 10500L4244.27 8151.82C4013.96 8061.39 3843.19 7852.41 3807.09 7600ZM4439.53 8197.42L3902 10500C4048.18 10175.9 4164.85 9891.09 4267.46 9640.65C4506.97 9056.1 4669.84 8658.58 4952.29 8384.13C5552.56 7800.86 6692.92 7773.4 10256.8 7687.61C11168.7 7665.65 12239.2 7639.88 13500 7600L5192.91 7600C5144.39 7939.23 4852.65 8200 4500 8200C4479.63 8200 4459.46 8199.13 4439.53 8197.42ZM5192.91 7400H13500C11954.7 7347.91 10686.8 7325.97 9648.62 7308C6790.39 7258.54 5673.34 7239.21 5303.94 6703.93C5066.95 6360.52 5137.67 5804.76 5253.77 4892.45L5253.77 4892.41C5269.56 4768.33 5286.19 4637.64 5303 4500L4754.9 6847.86C4985.63 6938.11 5156.76 7147.28 5192.91 7400Z" fill="#1919AF"/>
<circle cx="4500" cy="7500" r="500" fill="white"/>
<path d="M5231.63 10127.2H5148.13V10271H5101.02V9915.53H5218.69C5258.73 9915.53 5289.49 9924.65 5310.98 9942.88C5332.62 9961.1 5343.45 9987.63 5343.45 10022.5C5343.45 10044.6 5337.43 10063.9 5325.38 10080.3C5313.5 10096.8 5296.9 10109.1 5275.58 10117.2L5359.07 10268.1V10271H5308.78L5231.63 10127.2ZM5148.13 10088.9H5220.16C5243.43 10088.9 5261.9 10082.8 5275.58 10070.8C5289.41 10058.8 5296.33 10042.6 5296.33 10022.5C5296.33 10000.5 5289.74 9983.65 5276.55 9971.93C5263.53 9960.21 5244.65 9954.27 5219.91 9954.11H5148.13V10088.9ZM6005.65 10178.2H5856.73L5823.28 10271H5774.94L5910.68 9915.53H5951.7L6087.69 10271H6039.59L6005.65 10178.2ZM5870.89 10139.7H5991.74L5931.19 9973.39L5870.89 10139.7ZM6794.08 10158.2C6789.69 10195.8 6775.77 10224.9 6752.33 10245.4C6729.06 10265.7 6698.05 10275.9 6659.32 10275.9C6617.32 10275.9 6583.63 10260.8 6558.24 10230.7C6533.01 10200.6 6520.4 10160.3 6520.4 10109.9V10075.7C6520.4 10042.6 6526.26 10013.6 6537.98 9988.53C6549.86 9963.46 6566.62 9944.26 6588.27 9930.91C6609.92 9917.4 6634.98 9910.65 6663.47 9910.65C6701.23 9910.65 6731.5 9921.23 6754.29 9942.39C6777.07 9963.38 6790.34 9992.52 6794.08 10029.8H6746.96C6742.89 10001.5 6734.02 9980.96 6720.35 9968.27C6706.84 9955.57 6687.88 9949.22 6663.47 9949.22C6633.52 9949.22 6610 9960.29 6592.91 9982.43C6575.98 10004.6 6567.52 10036.1 6567.52 10076.9V10111.3C6567.52 10149.9 6575.58 10180.6 6591.69 10203.4C6607.8 10226.2 6630.35 10237.6 6659.32 10237.6C6685.36 10237.6 6705.3 10231.7 6719.13 10220C6733.13 10208.1 6742.41 10187.5 6746.96 10158.2H6794.08ZM7308.58 10271H7261.71V9915.53H7308.58V10271ZM8067.71 10271H8020.6L7841.64 9997.07V10271H7794.52V9915.53H7841.64L8021.08 10190.7V9915.53H8067.71V10271ZM8813.42 10224.4C8801.37 10241.6 8784.53 10254.6 8762.88 10263.2C8741.4 10271.7 8716.33 10275.9 8687.69 10275.9C8658.71 10275.9 8633 10269.1 8610.54 10255.6C8588.08 10241.9 8570.66 10222.6 8558.29 10197.5C8546.08 10172.4 8539.82 10143.4 8539.49 10110.4V10079.3C8539.49 10025.8 8551.94 9984.3 8576.85 9954.84C8601.91 9925.38 8637.07 9910.65 8682.31 9910.65C8719.42 9910.65 8749.29 9920.17 8771.91 9939.21C8794.54 9958.09 8808.37 9984.95 8813.42 10019.8H8766.54C8757.75 9972.74 8729.76 9949.22 8682.56 9949.22C8651.15 9949.22 8627.3 9960.29 8611.03 9982.43C8594.91 10004.4 8586.77 10036.3 8586.61 10078.1V10107.2C8586.61 10147.1 8595.73 10178.8 8613.96 10202.4C8632.18 10225.8 8656.84 10237.6 8687.93 10237.6C8705.51 10237.6 8720.89 10235.6 8734.07 10231.7C8747.26 10227.8 8758.16 10221.2 8766.79 10211.9V10132.1H8684.51V10094H8813.42V10224.4ZM10159.2 9954.11H10044.9V10271H9998.26V9954.11H9884.25V9915.53H10159.2V9954.11ZM10920.3 10106.7H10766.3V10232.7H10945.2V10271H10719.4V9915.53H10942.8V9954.11H10766.3V10068.4H10920.3V10106.7ZM11707.4 10178.2H11558.4L11525 10271H11476.6L11612.4 9915.53H11653.4L11789.4 10271H11741.3L11707.4 10178.2ZM11572.6 10139.7H11693.4L11632.9 9973.39L11572.6 10139.7ZM12405.3 9915.53L12521.5 10205.6L12637.7 9915.53H12698.5V10271H12651.6V10132.6L12656 9983.16L12539.3 10271H12503.4L12387 9983.89L12391.6 10132.6V10271H12344.7V9915.53H12405.3Z" fill="white"/>
<path d="M5742.84 9640H5646.66L5622.73 9439.5H5315.53L5198.77 9640H5098.76L5522.72 8927.49H5648.09L5742.84 9640ZM5612.21 9361.98L5567.7 9010.27L5360.98 9361.98H5612.21ZM6798.98 9652.92C6752.72 9652.92 6708.7 9648.13 6666.91 9638.56C6625.12 9628.68 6584.13 9613.68 6543.93 9593.58L6566.9 9484.96H6573.6C6604.23 9513.99 6641.71 9536.32 6686.05 9551.95C6730.71 9567.27 6773.78 9574.92 6815.25 9574.92C6883.2 9574.92 6935.2 9561.52 6971.25 9534.73C7007.61 9507.61 7025.8 9473.16 7025.8 9431.37C7025.8 9409.36 7019.26 9391.01 7006.18 9376.34C6993.42 9361.66 6974.6 9350.82 6949.71 9343.8C6928.98 9338.06 6904.25 9332.63 6875.54 9327.53C6847.15 9322.11 6820.04 9316.36 6794.2 9310.3C6744.11 9299.14 6705.35 9280 6677.92 9252.88C6650.48 9225.76 6636.76 9192.11 6636.76 9151.91C6636.76 9083.96 6665.48 9027.5 6722.9 8982.52C6780.64 8937.22 6855.13 8914.57 6946.36 8914.57C6996.13 8914.57 7041.27 8919.83 7081.78 8930.36C7122.62 8940.57 7157.71 8952.69 7187.06 8966.73L7165.52 9068.65H7158.82C7136.18 9047.92 7103.8 9030.05 7061.69 9015.06C7019.9 9000.07 6975.87 8992.57 6929.62 8992.57C6871.56 8992.57 6825.14 9005.33 6790.37 9030.85C6755.91 9056.37 6738.69 9088.75 6738.69 9127.99C6738.69 9149.04 6744.91 9167.55 6757.35 9183.5C6769.79 9199.45 6791.96 9211.41 6823.86 9219.38C6844.28 9224.17 6871.4 9230.07 6905.21 9237.09C6939.03 9243.79 6967.42 9250.17 6990.39 9256.23C7035.69 9268.67 7069.98 9287.17 7093.27 9311.74C7116.88 9336.3 7128.68 9367.25 7128.68 9404.57C7128.68 9435.83 7121.02 9466.94 7105.71 9497.88C7090.4 9528.82 7069.02 9555.3 7041.59 9577.31C7012.24 9600.92 6977.79 9619.42 6938.23 9632.82C6898.99 9646.22 6852.57 9652.92 6798.98 9652.92ZM8587.73 9008.36H8333.64L8187.69 9640H8091.99L8237.94 9008.36H7983.84L8002.03 8927.49H8605.91L8587.73 9008.36ZM9737.18 9104.54C9737.18 9087.63 9734.63 9073.44 9729.53 9061.95C9724.42 9050.15 9716.61 9040.1 9706.08 9031.81C9693.96 9021.92 9679.12 9015.06 9661.58 9011.23C9644.03 9007.4 9622.5 9005.49 9596.98 9005.49H9489.79L9426.15 9280.16H9526.64C9557.9 9280.16 9585.01 9277.29 9607.98 9271.54C9630.95 9265.8 9651.85 9255.75 9670.67 9241.4C9691.72 9225.45 9707.99 9205.51 9719.48 9181.58C9731.28 9157.34 9737.18 9131.66 9737.18 9104.54ZM9843.41 9640H9731.92L9544.34 9355.28H9408.92L9343.36 9640H9247.66L9411.79 8927.49H9606.07C9649.45 8927.49 9684.7 8930.36 9711.82 8936.1C9738.94 8941.53 9762.54 8951.58 9782.64 8966.25C9800.51 8979.33 9814.54 8995.12 9824.75 9013.62C9834.96 9032.13 9840.06 9055.25 9840.06 9083.01C9840.06 9142.34 9821.4 9194.5 9784.08 9239.48C9747.07 9284.14 9698.42 9315.25 9638.13 9332.79L9843.41 9640ZM11242.6 9353.85C11230.2 9407.12 11214.4 9452.58 11195.3 9490.22C11176.1 9527.55 11150.8 9559.13 11119.2 9584.97C11089.8 9608.58 11057.9 9626.12 11023.5 9637.61C10989.4 9649.09 10949.2 9654.83 10902.9 9654.83C10827.9 9654.83 10772.1 9637.93 10735.4 9604.11C10698.7 9570.3 10680.4 9523.56 10680.4 9463.91C10680.4 9443.81 10681.7 9425.15 10684.2 9407.92C10687.1 9390.69 10690.6 9372.67 10694.7 9353.85L10793.3 8927.49H10889L10789.5 9358.63C10785.7 9373.63 10782.5 9390.53 10779.9 9409.36C10777.7 9427.86 10776.6 9442.37 10776.6 9452.9C10776.6 9493.1 10788.5 9523.88 10812.5 9545.25C10836.4 9566.31 10872.1 9576.84 10919.7 9576.84C10953.8 9576.84 10983.8 9571.57 11009.6 9561.04C11035.5 9550.52 11057.9 9534.73 11077.1 9513.67C11094.3 9493.89 11108 9472.04 11118.2 9448.12C11128.8 9423.87 11137.9 9394.84 11145.5 9361.03L11245.5 8927.49H11341.2L11242.6 9353.85ZM12703.6 9640H12607.9L12748.6 9034.68L12459.1 9443.81H12402.6L12302.1 9016.02L12157.6 9640H12068.1L12232.8 8927.49H12362.9L12459.1 9324.18L12736.6 8927.49H12868.2L12703.6 9640Z" fill="white"/>
<path d="M9330 9005.5H9490V9280H9330V9005.5Z" fill="black"/>
<path d="M9244 9355H9409.5V9645.5H9244V9355Z" fill="black"/>
<path d="M5377 9335L5609 9337L5628 9484L5299 9468L5377 9335Z" fill="black"/>
</svg>
